<svg xmlns="http://www.w3.org/2000/svg" width="720" height="200" viewBox="0 0 720 200" role="img" aria-labelledby="title desc">
  <title id="title">HIP Logo Concept 01 - Shield Lockup</title>
  <desc id="desc">Security shield icon with explicit HIP wordmark.</desc>
  <defs>
    <linearGradient id="g1" x1="0" y1="0" x2="1" y2="1">
      <stop offset="0%" stop-color="#1E40AF"/>
      <stop offset="100%" stop-color="#0EA5E9"/>
    </linearGradient>
  </defs>
  <rect width="720" height="200" fill="#FFFFFF"/>
  <g transform="translate(40,28)">
    <path d="M60 8 L112 28 V74 C112 108 89 136 60 148 C31 136 8 108 8 74 V28 Z" fill="url(#g1)"/>
    <path d="M60 42 a18 18 0 0 1 18 18 v10 h-36 v-10 a18 18 0 0 1 18-18z" fill="#FFFFFF" opacity="0.95"/>
    <rect x="44" y="68" width="32" height="34" rx="6" fill="#FFFFFF"/>
    <circle cx="60" cy="84" r="4" fill="#1E40AF"/>
    <rect x="58" y="88" width="4" height="8" rx="2" fill="#1E40AF"/>
  </g>
  <g transform="translate(190,64)">
    <text x="0" y="46" font-family="Inter, Segoe UI, Arial, sans-serif" font-size="76" font-weight="800" letter-spacing="1" fill="#0F172A">HIP</text>
    <text x="4" y="78" font-family="Inter, Segoe UI, Arial, sans-serif" font-size="20" font-weight="500" fill="#334155">Identity Protection</text>
  </g>
</svg>
