<svg xmlns="http://www.w3.org/2000/svg" viewBox="0 0 256 256" role="img" aria-labelledby="t"><title id="t">HIP Protocol Core</title><path d="m128 18 88 34v66c0 56-34 98-88 118-54-20-88-62-88-118V52z" fill="#0d1918"/><circle cx="128" cy="126" r="27" fill="none" stroke="#eff8f6" stroke-width="9"/><circle cx="128" cy="126" r="8" fill="#5ad7bb"/><path d="M128 99V70M104 113 78 98M104 139l-26 15M152 113l26-15M152 139l26 15M128 153v29" stroke="#5ad7bb" stroke-width="8" stroke-linecap="round"/><g fill="#eff8f6"><circle cx="128" cy="65" r="9"/><circle cx="72" cy="95" r="9"/><circle cx="72" cy="157" r="9"/><circle cx="184" cy="95" r="9"/><circle cx="184" cy="157" r="9"/><circle cx="128" cy="187" r="9"/></g></svg>
