<svg xmlns="http://www.w3.org/2000/svg" viewBox="0 0 256 256" role="img" aria-labelledby="t"><title id="t">HIP Fingerprint Link</title><path d="M128 18 214 52v67c0 55-33 96-86 116-53-20-86-61-86-116V52z" fill="#0d1918"/><path d="M83 142c0-33 18-57 45-57s45 24 45 57M101 153c0-23 10-39 27-39s27 16 27 39M119 154c0-10 3-17 9-17s9 7 9 17c0 19-5 35-15 49" fill="none" stroke="#eff8f6" stroke-width="8" stroke-linecap="round"/><path d="M88 102 71 89M168 102l17-13M128 84V62" stroke="#5ad7bb" stroke-width="8" stroke-linecap="round"/><circle cx="66" cy="85" r="8" fill="#5ad7bb"/><circle cx="190" cy="85" r="8" fill="#5ad7bb"/><circle cx="128" cy="56" r="8" fill="#5ad7bb"/></svg>
