<svg xmlns="http://www.w3.org/2000/svg" viewBox="0 0 256 256" role="img" aria-labelledby="title">
  <title id="title">HIP Identity shield logo</title>
  <path d="M128 18 214 52v67c0 55-33 96-86 116-53-20-86-61-86-116V52z" fill="#0d1918" stroke="#5ad7bb" stroke-width="8"/>
  <path d="M86 137c0-29 17-50 42-50s42 21 42 50M102 150c0-20 10-34 26-34s26 14 26 34c0 26-9 42-23 59M119 150c0-9 3-15 9-15s9 6 9 15c0 18-5 31-14 43" fill="none" stroke="#eff8f6" stroke-width="8" stroke-linecap="round"/>
</svg>
